<svg width="121" height="39" viewBox="0 0 121 39" fill="none" xmlns="http://www.w3.org/2000/svg">
<rect width="121" height="39" rx="8" fill="#151515" fill-opacity="0.5"/>
<path d="M13.632 27.096C12.464 27.096 11.416 26.808 10.488 26.232C9.56 25.64 8.824 24.848 8.28 23.856C7.752 22.848 7.488 21.712 7.488 20.448C7.488 19.184 7.776 18.048 8.352 17.04C8.944 16.032 9.736 15.24 10.728 14.664C11.736 14.072 12.864 13.776 14.112 13.776C15.36 13.776 16.48 14.072 17.472 14.664C18.464 15.24 19.248 16.032 19.824 17.04C20.416 18.048 20.712 19.184 20.712 20.448H19.776C19.776 21.712 19.504 22.848 18.96 23.856C18.432 24.848 17.704 25.64 16.776 26.232C15.848 26.808 14.8 27.096 13.632 27.096ZM14.112 24.936C14.928 24.936 15.656 24.744 16.296 24.36C16.936 23.96 17.44 23.424 17.808 22.752C18.176 22.064 18.36 21.296 18.36 20.448C18.36 19.584 18.176 18.816 17.808 18.144C17.44 17.456 16.936 16.92 16.296 16.536C15.656 16.136 14.928 15.936 14.112 15.936C13.312 15.936 12.584 16.136 11.928 16.536C11.288 16.92 10.776 17.456 10.392 18.144C10.024 18.816 9.84 19.584 9.84 20.448C9.84 21.296 10.024 22.064 10.392 22.752C10.776 23.424 11.288 23.96 11.928 24.36C12.584 24.744 13.312 24.936 14.112 24.936ZM19.488 27.024C19.136 27.024 18.84 26.912 18.6 26.688C18.376 26.448 18.264 26.152 18.264 25.8V22.128L18.72 19.584L20.712 20.448V25.8C20.712 26.152 20.592 26.448 20.352 26.688C20.128 26.912 19.84 27.024 19.488 27.024ZM35.4433 27.024C35.0913 27.024 34.7953 26.912 34.5553 26.688C34.3313 26.448 34.2193 26.152 34.2193 25.8V19.896C34.2193 18.984 34.0513 18.24 33.7153 17.664C33.3793 17.088 32.9233 16.664 32.3473 16.392C31.7873 16.104 31.1393 15.96 30.4033 15.96C29.7313 15.96 29.1233 16.096 28.5793 16.368C28.0353 16.64 27.6033 17.008 27.2833 17.472C26.9633 17.92 26.8033 18.44 26.8033 19.032H25.2913C25.2913 18.024 25.5313 17.128 26.0113 16.344C26.5073 15.544 27.1793 14.912 28.0273 14.448C28.8753 13.984 29.8273 13.752 30.8833 13.752C31.9873 13.752 32.9713 13.992 33.8353 14.472C34.7153 14.936 35.4033 15.624 35.8993 16.536C36.4113 17.448 36.6673 18.568 36.6673 19.896V25.8C36.6673 26.152 36.5473 26.448 36.3073 26.688C36.0833 26.912 35.7953 27.024 35.4433 27.024ZM25.5793 27.024C25.2273 27.024 24.9313 26.912 24.6913 26.688C24.4673 26.448 24.3553 26.152 24.3553 25.8V15.096C24.3553 14.728 24.4673 14.432 24.6913 14.208C24.9313 13.984 25.2273 13.872 25.5793 13.872C25.9473 13.872 26.2433 13.984 26.4673 14.208C26.6913 14.432 26.8033 14.728 26.8033 15.096V25.8C26.8033 26.152 26.6913 26.448 26.4673 26.688C26.2433 26.912 25.9473 27.024 25.5793 27.024ZM46.2347 27.12C45.1307 27.12 44.1387 26.888 43.2587 26.424C42.3947 25.944 41.7067 25.248 41.1947 24.336C40.6987 23.424 40.4507 22.304 40.4507 20.976V15.072C40.4507 14.72 40.5627 14.432 40.7867 14.208C41.0267 13.968 41.3227 13.848 41.6747 13.848C42.0267 13.848 42.3147 13.968 42.5387 14.208C42.7787 14.432 42.8987 14.72 42.8987 15.072V20.976C42.8987 21.872 43.0667 22.616 43.4027 23.208C43.7387 23.784 44.1947 24.216 44.7707 24.504C45.3467 24.776 45.9947 24.912 46.7147 24.912C47.4027 24.912 48.0107 24.776 48.5387 24.504C49.0827 24.232 49.5147 23.864 49.8347 23.4C50.1547 22.936 50.3147 22.416 50.3147 21.84H51.8267C51.8267 22.832 51.5787 23.728 51.0827 24.528C50.6027 25.328 49.9387 25.96 49.0907 26.424C48.2587 26.888 47.3067 27.12 46.2347 27.12ZM51.5387 27C51.1867 27 50.8907 26.888 50.6507 26.664C50.4267 26.424 50.3147 26.128 50.3147 25.776V15.072C50.3147 14.704 50.4267 14.408 50.6507 14.184C50.8907 13.96 51.1867 13.848 51.5387 13.848C51.9067 13.848 52.2027 13.96 52.4267 14.184C52.6507 14.408 52.7627 14.704 52.7627 15.072V25.776C52.7627 26.128 52.6507 26.424 52.4267 26.664C52.2027 26.888 51.9067 27 51.5387 27ZM68.1621 27.024C67.8101 27.024 67.5141 26.912 67.2741 26.688C67.0501 26.448 66.9381 26.152 66.9381 25.8V19.896C66.9381 18.984 66.7701 18.24 66.4341 17.664C66.0981 17.088 65.6421 16.664 65.0661 16.392C64.5061 16.104 63.8581 15.96 63.1221 15.96C62.4501 15.96 61.8421 16.096 61.2981 16.368C60.7541 16.64 60.3221 17.008 60.0021 17.472C59.6821 17.92 59.5221 18.44 59.5221 19.032H58.0101C58.0101 18.024 58.2501 17.128 58.7301 16.344C59.2261 15.544 59.8981 14.912 60.7461 14.448C61.5941 13.984 62.5461 13.752 63.6021 13.752C64.7061 13.752 65.6901 13.992 66.5541 14.472C67.4341 14.936 68.1221 15.624 68.6181 16.536C69.1301 17.448 69.3861 18.568 69.3861 19.896V25.8C69.3861 26.152 69.2661 26.448 69.0261 26.688C68.8021 26.912 68.5141 27.024 68.1621 27.024ZM58.2981 27.024C57.9461 27.024 57.6501 26.912 57.4101 26.688C57.1861 26.448 57.0741 26.152 57.0741 25.8V15.096C57.0741 14.728 57.1861 14.432 57.4101 14.208C57.6501 13.984 57.9461 13.872 58.2981 13.872C58.6661 13.872 58.9621 13.984 59.1861 14.208C59.4101 14.432 59.5221 14.728 59.5221 15.096V25.8C59.5221 26.152 59.4101 26.448 59.1861 26.688C58.9621 26.912 58.6661 27.024 58.2981 27.024ZM79.3854 27.096C78.1054 27.096 76.9614 26.808 75.9534 26.232C74.9614 25.64 74.1774 24.848 73.6014 23.856C73.0414 22.848 72.7614 21.712 72.7614 20.448C72.7614 19.152 73.0414 18 73.6014 16.992C74.1614 15.984 74.9294 15.2 75.9054 14.64C76.8814 14.064 78.0014 13.776 79.2654 13.776C80.2094 13.776 81.0734 13.96 81.8574 14.328C82.6414 14.68 83.3454 15.216 83.9694 15.936C84.1934 16.192 84.2734 16.456 84.2094 16.728C84.1454 17 83.9694 17.24 83.6814 17.448C83.4574 17.608 83.2094 17.664 82.9374 17.616C82.6654 17.552 82.4174 17.408 82.1934 17.184C81.4094 16.352 80.4334 15.936 79.2654 15.936C78.4494 15.936 77.7294 16.128 77.1054 16.512C76.4814 16.88 75.9934 17.4 75.6414 18.072C75.2894 18.744 75.1134 19.536 75.1134 20.448C75.1134 21.312 75.2894 22.08 75.6414 22.752C76.0094 23.424 76.5134 23.96 77.1534 24.36C77.7934 24.744 78.5374 24.936 79.3854 24.936C79.9454 24.936 80.4334 24.872 80.8494 24.744C81.2814 24.6 81.6734 24.384 82.0254 24.096C82.2814 23.888 82.5454 23.776 82.8174 23.76C83.0894 23.728 83.3294 23.8 83.5374 23.976C83.8094 24.2 83.9614 24.456 83.9934 24.744C84.0254 25.016 83.9294 25.264 83.7054 25.488C82.5534 26.56 81.1134 27.096 79.3854 27.096ZM89.3115 27C88.9595 27 88.6635 26.888 88.4235 26.664C88.1995 26.424 88.0875 26.128 88.0875 25.776V15.096C88.0875 14.728 88.1995 14.432 88.4235 14.208C88.6635 13.984 88.9595 13.872 89.3115 13.872C89.6795 13.872 89.9755 13.984 90.1995 14.208C90.4235 14.432 90.5355 14.728 90.5355 15.096V25.776C90.5355 26.128 90.4235 26.424 90.1995 26.664C89.9755 26.888 89.6795 27 89.3115 27ZM89.3115 11.736C88.8795 11.736 88.5035 11.584 88.1835 11.28C87.8795 10.96 87.7275 10.584 87.7275 10.152C87.7275 9.72 87.8795 9.352 88.1835 9.048C88.5035 8.728 88.8795 8.568 89.3115 8.568C89.7435 8.568 90.1115 8.728 90.4155 9.048C90.7355 9.352 90.8955 9.72 90.8955 10.152C90.8955 10.584 90.7355 10.96 90.4155 11.28C90.1115 11.584 89.7435 11.736 89.3115 11.736ZM101.258 27.096C99.9297 27.096 98.7457 26.816 97.7057 26.256C96.6817 25.68 95.8737 24.896 95.2817 23.904C94.7057 22.896 94.4177 21.744 94.4177 20.448C94.4177 19.136 94.6897 17.984 95.2337 16.992C95.7937 15.984 96.5617 15.2 97.5377 14.64C98.5137 14.064 99.6337 13.776 100.898 13.776C102.146 13.776 103.218 14.056 104.114 14.616C105.01 15.16 105.69 15.92 106.154 16.896C106.634 17.856 106.874 18.968 106.874 20.232C106.874 20.536 106.77 20.792 106.562 21C106.354 21.192 106.09 21.288 105.77 21.288H96.0977V19.368H105.698L104.714 20.04C104.698 19.24 104.538 18.528 104.234 17.904C103.93 17.264 103.498 16.76 102.938 16.392C102.378 16.024 101.698 15.84 100.898 15.84C99.9857 15.84 99.2017 16.04 98.5457 16.44C97.9057 16.84 97.4177 17.392 97.0817 18.096C96.7457 18.784 96.5777 19.568 96.5777 20.448C96.5777 21.328 96.7777 22.112 97.1777 22.8C97.5777 23.488 98.1297 24.032 98.8337 24.432C99.5377 24.832 100.346 25.032 101.258 25.032C101.754 25.032 102.258 24.944 102.77 24.768C103.298 24.576 103.722 24.36 104.042 24.12C104.282 23.944 104.538 23.856 104.81 23.856C105.098 23.84 105.346 23.92 105.554 24.096C105.826 24.336 105.97 24.6 105.986 24.888C106.002 25.176 105.874 25.424 105.602 25.632C105.058 26.064 104.378 26.416 103.562 26.688C102.762 26.96 101.994 27.096 101.258 27.096ZM110.692 22.56C110.34 22.56 110.044 22.44 109.804 22.2C109.58 21.944 109.468 21.656 109.468 21.336V9.504C109.468 9.152 109.58 8.856 109.804 8.616C110.044 8.376 110.34 8.256 110.692 8.256C111.044 8.256 111.332 8.376 111.556 8.616C111.796 8.856 111.916 9.152 111.916 9.504V21.336C111.916 21.672 111.788 21.96 111.532 22.2C111.292 22.44 111.012 22.56 110.692 22.56ZM110.692 27C110.244 27 109.852 26.84 109.516 26.52C109.196 26.2 109.036 25.808 109.036 25.344C109.036 24.88 109.196 24.488 109.516 24.168C109.852 23.832 110.244 23.664 110.692 23.664C111.156 23.664 111.548 23.832 111.868 24.168C112.188 24.488 112.348 24.88 112.348 25.344C112.348 25.808 112.18 26.2 111.844 26.52C111.524 26.84 111.14 27 110.692 27Z" fill="#EB1D80"/>
</svg>
